<svg xmlns="http://www.w3.org/2000/svg" height="350" width="350" viewBox="0 0 33 33" role="img"><path fill="#FFFFFF" d="M0,0 h33v33H0z" shape-rendering="crispEdges"/><path fill="#000000" d="M4 4h7v1H4zM12 4h1v1H12zM15 4h2v1H15zM18 4h1v1H18zM22,4 h7v1H22zM4 5h1v1H4zM10 5h1v1H10zM12 5h3v1H12zM16 5h3v1H16zM20 5h1v1H20zM22 5h1v1H22zM28,5 h1v1H28zM4 6h1v1H4zM6 6h3v1H6zM10 6h1v1H10zM14 6h5v1H14zM22 6h1v1H22zM24 6h3v1H24zM28,6 h1v1H28zM4 7h1v1H4zM6 7h3v1H6zM10 7h1v1H10zM14 7h1v1H14zM17 7h3v1H17zM22 7h1v1H22zM24 7h3v1H24zM28,7 h1v1H28zM4 8h1v1H4zM6 8h3v1H6zM10 8h1v1H10zM12 8h4v1H12zM17 8h1v1H17zM22 8h1v1H22zM24 8h3v1H24zM28,8 h1v1H28zM4 9h1v1H4zM10 9h1v1H10zM12 9h1v1H12zM15 9h1v1H15zM18 9h1v1H18zM20 9h1v1H20zM22 9h1v1H22zM28,9 h1v1H28zM4 10h7v1H4zM12 10h1v1H12zM14 10h1v1H14zM16 10h1v1H16zM18 10h1v1H18zM20 10h1v1H20zM22,10 h7v1H22zM12 11h1v1H12zM14 11h3v1H14zM19 11h1v1H19zM4 12h3v1H4zM9 12h2v1H9zM12 12h3v1H12zM16 12h1v1H16zM19 12h6v1H19zM27,12 h2v1H27zM9 13h1v1H9zM11 13h4v1H11zM17 13h1v1H17zM19 13h2v1H19zM22 13h2v1H22zM25 13h1v1H25zM27,13 h2v1H27zM4 14h2v1H4zM7 14h2v1H7zM10 14h3v1H10zM15 14h1v1H15zM17 14h3v1H17zM25 14h2v1H25zM28,14 h1v1H28zM4 15h1v1H4zM11 15h3v1H11zM15 15h2v1H15zM18 15h5v1H18zM25 15h1v1H25zM5 16h4v1H5zM10 16h1v1H10zM12 16h2v1H12zM16 16h1v1H16zM20 16h1v1H20zM22 16h2v1H22zM28,16 h1v1H28zM6 17h3v1H6zM11 17h3v1H11zM15 17h1v1H15zM19 17h2v1H19zM22 17h2v1H22zM27,17 h2v1H27zM4 18h2v1H4zM7 18h6v1H7zM14 18h2v1H14zM19 18h2v1H19zM22 18h1v1H22zM25 18h2v1H25zM28,18 h1v1H28zM6 19h4v1H6zM16 19h1v1H16zM18 19h1v1H18zM20 19h2v1H20zM23 19h3v1H23zM4 20h5v1H4zM10 20h1v1H10zM13 20h2v1H13zM16 20h1v1H16zM19 20h6v1H19zM27 20h1v1H27zM12 21h2v1H12zM15 21h3v1H15zM19 21h2v1H19zM24 21h1v1H24zM28,21 h1v1H28zM4 22h7v1H4zM15 22h1v1H15zM20 22h1v1H20zM22 22h1v1H22zM24 22h1v1H24zM28,22 h1v1H28zM4 23h1v1H4zM10 23h1v1H10zM12 23h2v1H12zM15 23h2v1H15zM18 23h3v1H18zM24 23h1v1H24zM27,23 h2v1H27zM4 24h1v1H4zM6 24h3v1H6zM10 24h1v1H10zM14 24h1v1H14zM16 24h1v1H16zM18 24h7v1H18zM27 24h1v1H27zM4 25h1v1H4zM6 25h3v1H6zM10 25h1v1H10zM13 25h5v1H13zM19 25h1v1H19zM21 25h1v1H21zM24 25h1v1H24zM26 25h2v1H26zM4 26h1v1H4zM6 26h3v1H6zM10 26h1v1H10zM12 26h2v1H12zM15 26h1v1H15zM19 26h1v1H19zM23 26h3v1H23zM27,26 h2v1H27zM4 27h1v1H4zM10 27h1v1H10zM12 27h1v1H12zM14 27h2v1H14zM20 27h1v1H20zM22 27h3v1H22zM4 28h7v1H4zM12 28h5v1H12zM20 28h3v1H20zM25 28h1v1H25zM28,28 h1v1H28z" shape-rendering="crispEdges"/></svg>